PathFileType	4	(X/Y/Z)	Patient4_TMGait_0pt5_01_right_13.trc.trc
DataRate	CameraRate	NumFrames	NumMarkers	Units	OrigDataRate	OrigDataStartFrame	OrigNumFrames
77.777777777778	77.777777777778	5	33	mm	77.777777777778	1	       141
Frame#	Time	L.ASIS			Sacral			L.Shoulder			Chest			R.Shoulder			Neck			R.ASIS			R.Thigh.Superior			R.Thigh.Lateral			R.Thigh.Inferior			R.Patella			L.Thigh.Superior			L.Thigh.Lateral			L.Thigh.Inferior			L.Patella			L.Shank.Superior			L.Shank.Lateral			L.Shank.Inferior			R.Shank.Superior			R.Shank.Lateral			R.Shank.Inferior			R.Heel			R.Midfoot.Superior			R.Midfoot.Lateral			R.Toe			L.Heel			L.Midfoot.Lateral			L.Midfoot.Superior			L.Toe			L.Elbow			L.Wrist			R.Elbow			R.Wrist			
		X1	Y1	Z1	X2	Y2	Z2	X3	Y3	Z3	X4	Y4	Z4	X5	Y5	Z5	X6	Y6	Z6	X7	Y7	Z7	X8	Y8	Z8	X9	Y9	Z9	X10	Y10	Z10	X11	Y11	Z11	X12	Y12	Z12	X13	Y13	Z13	X14	Y14	Z14	X15	Y15	Z15	X16	Y16	Z16	X17	Y17	Z17	X18	Y18	Z18	X19	Y19	Z19	X20	Y20	Z20	X21	Y21	Z21	X22	Y22	Z22	X23	Y23	Z23	X24	Y24	Z24	X25	Y25	Z25	X26	Y26	Z26	X27	Y27	Z27	X28	Y28	Z28	X29	Y29	Z29	X30	Y30	Z30	X31	Y31	Z31	X32	Y32	Z32	X33	Y33	Z33	

1	16.770000000000	803.024100559891	964.182751914175	268.378490166315	581.010394989606	1011.513050705996	421.074794928055	755.569871147753	1437.768188856610	231.530339346630	853.204981528773	1372.844670333240	398.047088207704	762.507944751223	1446.893866916107	568.583680053303	750.481565690725	1503.249497107300	381.649339658075	805.363355795764	956.471739967640	544.084726913191	891.351755529033	786.075205742210	518.032883295366	852.883291487415	666.620195024441	595.055647303843	942.585387900769	627.358040247712	516.599414531984	967.669950294917	519.920403189724	541.380084630011	838.234323975406	746.859920867256	306.985224587494	744.251596665648	635.327339346201	251.064990082519	820.560128408448	555.171014392346	319.621727109844	815.304842166851	486.641160687118	333.049814523918	789.712579838659	416.123099195066	326.312100069659	701.206285458543	300.922063645912	277.873399008838	748.031097115889	192.596887969637	355.397538585171	905.490289710731	437.275452819839	550.478857525054	795.349761184925	373.392690739031	610.554205691923	805.607638326446	262.850957359951	564.799662466854	623.445082145966	151.756469084915	534.713101678810	800.310743819828	147.140949564554	587.427053809169	692.191602021440	120.307630738249	616.756330183349	889.802310277285	59.042932830060	630.235239029458	616.044991047632	37.918316058063	401.151318249013	690.382979669227	34.979715967715	320.096699833753	773.743773549348	95.809625546587	346.396701590324	902.050501412069	43.681685864341	318.716592371468	804.317579174978	1093.137096062792	95.843717763462	1004.985735559240	923.762272507860	88.232086309629	667.494783276766	1112.862554004012	681.251460727341	661.769273719620	854.878980243458	712.446954850098	
2	16.782857142857	802.769018709945	963.956011793924	268.734477765127	580.489368357501	1011.435694511955	420.131722964697	756.224418619028	1437.824506111078	231.632627610614	852.657907308035	1372.837858637062	398.780191142995	760.749956148269	1446.940031443703	568.667278667847	749.996630607983	1503.209708834418	381.712843891198	804.014930461590	956.435003718237	544.357776056233	889.447826828399	785.914149924258	518.604129904036	850.865350080786	666.574772346640	595.783848103214	940.159944974799	627.189347830801	517.114303648865	966.548513392789	521.888030307425	542.102133564568	836.488426767784	746.019017489718	307.058765284283	741.185938914743	635.268829920936	250.863991995911	816.429208083016	554.388790853971	319.395929700074	810.509954083958	486.111410916432	332.881727168224	784.664676311340	415.790189441177	326.202148423118	695.681974568291	300.973895818006	277.682026382572	741.823740064669	192.452244971547	355.252282902353	908.438656184658	437.959431364415	551.515390069612	802.510734799024	368.727627412317	611.984417938040	818.775868214746	259.173950875758	566.304937163853	643.904595874572	138.766736087959	536.412513285096	819.981887518178	143.519365725398	588.961041586623	714.069931977053	111.125315429692	618.634935288443	913.725638416836	60.802908130479	631.519857814085	609.324543303754	38.071747330678	401.059723096579	683.624098360790	35.001910014344	320.089759146531	767.084397311093	95.751765138470	346.365696317445	895.360758837037	43.345362061416	318.731926483548	807.237737379328	1094.485169068795	94.418466308825	1014.128683305183	934.017643456004	87.552366477503	658.069881612833	1116.733398112417	682.353166693545	645.489311089233	859.569497947071	715.022539235002	
3	16.795714285714	802.518586195508	963.724255499514	269.133169416437	579.986372799365	1011.360658226450	419.207167416001	756.886155350502	1437.863680881499	231.749751028339	852.120802979991	1372.829904040368	399.530795749819	759.005147163981	1447.004292330693	568.762576803179	749.525396297290	1503.166376815983	381.784359140516	802.670628384469	956.380705545482	544.671202354761	887.491156442382	785.689186237129	519.215400996324	848.744234148032	666.484199737797	596.543313345531	937.640335557052	626.948565309770	517.673559955023	965.302958633764	523.788710841042	542.834733805859	834.739211608031	745.176733854460	307.175605908438	738.116680108986	635.221452689761	250.677216319994	812.274616163987	553.618008839837	319.194348376972	805.694061368343	485.592763500578	332.726103671815	779.607097017807	415.472055038394	326.096598705341	690.164609632448	301.028710828725	277.497073527446	735.645481378527	192.313558695418	355.111869939903	911.280513600075	438.646700463795	552.541370885003	809.665439527639	364.129164439023	613.442228743215	831.869888598855	255.651083461801	567.782602211745	664.349158376555	126.106626280199	538.149600434003	839.590823897089	140.089904088840	590.421047063295	735.939697409727	102.209076116912	620.465151246676	937.506975814639	62.721113603790	632.625092532090	602.651428945807	38.220099518313	400.967399998479	676.914092203313	35.022618382250	320.082886966606	760.469552896015	95.695159974327	346.334184884392	888.715423102673	43.018645979032	318.745725012032	810.104875479805	1095.794828709256	93.051707675080	1023.041139572391	944.139921214878	86.943993703787	648.803896130166	1120.605097133213	683.424177623426	629.599170998739	864.248253885624	717.511091626909	
4	16.808571428571	802.278490708569	963.482482488607	269.618796942086	579.516425196061	1011.284202345004	418.329517144899	757.556672839081	1437.868189392387	231.906139835910	851.600247440769	1372.816813468470	400.321839465893	757.286238463285	1447.096085464014	568.888721729311	749.076329721118	1503.112945608734	381.881174464205	801.340296802248	956.293623422801	545.069133497983	885.448681222170	785.345037125838	519.915061160110	846.437600402695	666.302184582676	597.366067378127	934.956447156079	626.569124245469	518.325420015333	963.827036165697	525.558931924676	543.589086595933	832.975280861379	744.332327766204	307.380647968756	735.039306076912	635.195047477127	250.523266751780	808.077529985743	552.870660761465	319.043598901222	800.841692596024	485.095247020553	332.596881200140	774.528768335379	415.180966541370	326.003847329104	684.654137758823	301.093094394145	277.326982181089	729.514313483255	192.188089424598	354.980598203251	913.905089052451	439.338938463772	553.554762074572	816.762109759668	359.682186539461	614.941641139149	844.763570469516	252.441231421683	569.211499629250	684.674318495547	114.136696488661	539.934695525023	859.001164849212	137.037947750625	591.748176335275	757.687648891087	93.839442328440	622.194317281110	960.915832289578	64.916537702896	633.413973651546	596.054850417217	38.361898075736	400.874207528841	670.283662773466	35.042047594344	320.076408457812	753.925418746093	95.641539071724	346.301379426732	882.140972520223	42.709707548549	318.757378580942	812.858873281273	1097.020106836378	91.819252792491	1031.486465990668	953.961370070813	86.486549205551	639.881912295050	1124.433664521901	684.430651916985	614.522218172524	868.851325369390	719.824561715365	
5	16.821428571429	802.060488404165	963.228486872087	270.228342232658	579.090662573206	1011.200429490525	417.524245520288	758.237040617509	1437.823630873920	232.126441253675	851.099915821216	1372.793820561973	401.176215241716	755.605682397026	1447.220164517346	569.066235306433	748.653514824135	1503.042201657735	382.022083759665	800.031006235251	956.162254668921	545.589700812746	883.297168693272	784.838587895354	520.747796861662	843.881568883532	665.990680336863	598.282648461252	932.058717721509	625.998898407767	519.116150990352	962.033408149195	527.146526432271	544.375548426010	831.177992380191	743.484036514069	307.713876219728	731.942107332184	635.197382554266	250.418603777053	803.813083744588	552.155620250530	318.966994783826	795.931004886297	484.626156726670	332.504607826083	769.407006590889	414.926497184623	325.931870914352	679.134723721162	301.174355990376	277.178348916794	723.426694922220	192.083011103518	354.861176448028	916.222047220125	440.041346871317	554.557457404257	823.759382049836	355.462145855081	616.493105849468	857.359192216268	249.679267745754	570.577187154722	704.798715347790	103.160935927914	541.774883887404	878.114335979532	134.509789169336	592.895510082841	779.227030404628	86.246453121089	623.779247904519	983.777846084522	67.467683623628	633.771369311198	589.537688842965	38.497640474367	400.780700161797	663.737491752015	35.060782750592	320.070471801116	747.454628960206	95.592459122796	346.266116121347	875.639579827671	42.424534549455	318.766489435634	815.451986874246	1098.121816736033	90.789265996158	1039.282746973766	963.346092054008	86.247636742171	631.452132731273	1128.168975679799	685.342002219631	600.590937540225	873.310171379822	721.895126233349	
